<?xml version="1.0" encoding="UTF-8"?>
<svg id="Layer_1" xmlns="http://www.w3.org/2000/svg" version="1.1" viewBox="0 0 100 100">
  <!-- Generator: Adobe Illustrator 30.4.0, SVG Export Plug-In . SVG Version: 2.1.4 Build 226)  -->
  <path d="M50,0h0c27.614,0,50,22.386,50,50h0c0,27.614-22.386,50-50,50h0C22.386,100,0,77.614,0,50h0C0,22.386,22.386,0,50,0Z" fill="#776464"/>
  <path d="M50,.5h0c27.338,0,49.5,22.162,49.5,49.5h0c0,27.338-22.162,49.5-49.5,49.5h0C22.662,99.5.5,77.338.5,50h0C.5,22.662,22.662.5,50,.5Z" fill="none" stroke="#000" stroke-opacity=".06"/>
  <g>
    <path d="M81.49,34.061c-.829-1.199-6.211-8.639-7.936-10.09-.089-.074-.185-.163-.289-.252-.696-.614-1.755-1.547-3.383-2.102-.837-.281-1.717-.444-2.613-.481h-33.92c-.755.007-1.503.096-2.228.267-.659.155-1.984.555-3.442,1.518-.77.511-1.458,1.118-2.176,1.91-1.199,1.333-7.551,9.232-8.439,11.926-1.184,3.59,1.236,6.574,3.006,8.75.304.37.592.725.859,1.073,2.384,3.146,12.237,15.813,15.472,19.921.207.259.622.792,1.147,1.473,3.516,4.508,5.508,7.04,5.945,7.492,1.296,1.34,2.413,2.495,4.294,3.065.511.148,1.31.333,2.273.333.674,0,1.429-.089,2.213-.341,1.488-.481,2.45-1.355,4.035-3.131,1.843-2.065,6.877-8.536,9.883-12.4.888-1.14,1.577-2.028,1.917-2.45l7.181-9.039c.111-.141,3.805-4.819,3.924-4.96.259-.333,3.739-4.412,4.005-6.826.2-1.792-.385-3.694-1.725-5.656ZM53.543,72.927c-1.399,1.562-1.858,1.895-2.413,2.073-.933.304-1.829.118-2.273-.015-.925-.274-1.495-.837-2.695-2.08-.192-.2-.888-1.081-1.762-2.184,0-.503-.007-1.14,0-1.873,0-1.155-.007-2.31-.007-3.465-.007-1.814-.007-3.25,0-4.235.007-.37.022-2.628.022-3.924v-2.561c0-.074.111-1.717,1.096-2.946,1.384-1.725,3.783-1.717,4.486-1.717.777,0,2.48,0,3.709,1.214.688.674.992,1.473,1.125,1.917.259.859.341,1.769.348,2.665.007,1.088.015,2.169.015,3.25.015,1.777.022,3.553.022,5.338.007,2.176.015,4.36.015,6.537-.696.851-1.281,1.555-1.688,2.006ZM79.535,39.31c-.141,1.288-2.939,4.568-3.228,4.938-.118.141-3.887,4.908-3.931,4.96l-7.166,9.032c-.348.429-1.044,1.325-1.94,2.48-1.088,1.399-2.547,3.272-4.02,5.152,0-.651.007-1.296.015-1.947.037-2.754.133-5.515.074-8.262-.067-2.924-.503-5.626-2.48-7.529-.977-.94-2.147-1.466-2.384-1.569-2.147-.999-5.641-.837-7.262-.007-.503.192-1.007.415-1.473.681-.163.096-.474.311-.681.452-.267.178-.489.333-.637.437-.007-.54-.007-1.081-.007-1.621v-11.09c0-1.755-.007-3.509-.007-5.264-.037-.2-.141-.54-.415-.859-.577-.674-1.451-.651-1.584-.651-.178.007-.866.03-1.444.57-.37.348-.518.748-.577.948-.015,11.793-.03,23.586-.044,35.379-.474-.607-.844-1.081-1.036-1.325-3.228-4.101-13.059-16.731-15.435-19.87-.289-.378-.607-.77-.933-1.17-1.703-2.102-2.872-3.709-2.362-5.264.518-1.577,5.708-8.425,7.669-10.601.503-.555.97-.97,1.473-1.296,1.044-.688,1.977-.948,2.243-1.007.459-.111.933-.17,1.392-.17h33.809c.526.022,1.036.118,1.525.281.925.318,1.569.881,2.132,1.384.126.104.244.207.348.304,1.036.866,5.619,6.951,7.262,9.35.829,1.207,1.199,2.265,1.103,3.154h0Z" fill="#fff"/>
    <path id="Star" d="M60.883,28.331c.221-.596,1.064-.596,1.284,0l1.524,4.12c.091.248.287.443.534.534l4.12,1.524c.596.221.596,1.063,0,1.284l-4.12,1.524c-.248.091-.443.287-.534.534l-1.524,4.12c-.221.597-1.064.597-1.284,0l-1.524-4.12c-.091-.247-.287-.442-.534-.534l-4.119-1.524c-.597-.221-.597-1.064,0-1.284l4.119-1.524c.248-.091.443-.287.534-.534l1.524-4.12h0Z" fill="#fff"/>
  </g>
</svg>