<?xml version="1.0" encoding="UTF-8"?>
<svg id="Layer_1" xmlns="http://www.w3.org/2000/svg" viewBox="0 0 149.471 149.966">
  <defs>
    <style>
      .cls-1 {
        fill: #7e22ce;
      }

      .cls-2 {
        fill: none;
      }

      .cls-3 {
        fill: #f4f4f8;
      }

      .cls-4 {
        fill-rule: evenodd;
      }

      .cls-4, .cls-5 {
        fill: #521686;
      }

      .cls-6 {
        fill: #0e0e0e;
      }

      .cls-7 {
        opacity: .8;
      }
    </style>
  </defs>
  <path class="cls-5" d="M144.071,94.601c-9.7,39.1-49.4,62.9-88.5,53.2C16.571,138.101-7.329,98.401,2.371,59.401,12.071,20.201,51.771-3.599,90.871,6.201c39.1,9.8,62.9,49.3,53.2,88.4Z"/>
  <circle class="cls-1" cx="76.471" cy="73.901" r="73"/>
  <path class="cls-4" d="M18.071,72.901c0-32.2,26.2-58.4,58.4-58.4s58.4,26.2,58.4,58.4-26.2,58.4-58.4,58.4h-1.1c30.7-.6,55.3-25.6,55.3-56.4,0-31.2-25.2-56.4-56.4-56.4-30.8,0-55.8,24.7-56.4,55.3.2-.2.2-.5.2-.9Z"/>
  <g class="cls-7">
    <path class="cls-2" d="M2.171,59.301c-9.7,39.1,14,78.8,53.2,88.5,29.5,7.3,59.2-4.4,76.2-27.3,11-12.8,17.6-29.4,17.6-47.5C149.171,32.701,116.471,0,76.171,0,52.271-.099,30.871,11.501,17.671,29.401c-7.2,8.4-12.6,18.4-15.5,29.9Z"/>
  </g>
  <path class="cls-3" d="M112.871,73.001c0,5.4-1.2,9.5-2.4,13.7-1.3,4.4-2.9,8-3.9,10.2-1.6,3.5-2.8,5.8-3.2,6.4-1.2,2.2-2.3,3.9-3.3,5.4-1.6,2.5-2.5,3.8-3.1,4.5-1.4,1.5-4.5,4.9-8.4,4.5-3.1-.3-5.8-2.9-7.1-6.3-2.3.1-4.7.1-7.1.1-2.5,0-5,0-7.4-.1-.3.5-3,6-7.7,6.2-4.1.2-7.3-3.8-9.4-6.4-.9-1.1-1.6-2.3-3-4.7-1.2-2.1-2.9-4.8-4.6-8.5-1.7-3.6-4.4-9.3-5.9-17.1-.6-2.9-1-4.9-1-7.7-.1-2.7-.1-11.3,5.6-19.2,1.7-2.4,3.5-4.2,5.1-5.5-1,.9-1.6,1.4-1.6,1.4,0,0,.9-.8,2.7-2.4-1.1-.5-2.7-1.3-4.2-3-.6-.7-1.5-1.8-1.9-3.5-.1-.6-.7-3.4.8-4.9,1.7-1.7,5.3-.9,7.3.6,1.1.8,1.2,1.4,3.2,3.4,1.2,1.2,2.3,2.1,3.1,2.7,1.5-1,3.7-2.2,6.4-3.3,1.3-.5,6-2.2,12.2-2.3,8.9-.1,15.7,3.4,18.9,5.3,1-.6,2.2-1.4,3.4-2.6,1.2-1.1,2-2.1,2.7-3.1.4-.4,1.6-1.4,3.4-1.7.6-.1,2.5-.4,3.8.7,2,1.5,1.3,4.8,1.3,5.3-.8,4.5-5.9,6.4-6.4,6.6,2.3,1.8,5.9,5.1,8.6,10.3,3,6.4,3.1,11.9,3.1,15Z"/>
  <g id="Stroke">
    <path class="cls-6" d="M59.154,118.429c-4.561,0-8.262-4.33-10.606-8.063-2.583-4.091-5.066-8.139-7.035-12.666-4.065-8.987-6.328-17.49-6.542-24.584,0-7.715,2.053-14.343,6.101-19.716,1.844-2.397,3.791-4.271,5.634-5.423.234-.148.543-.076.689.159.146.234.075.542-.159.689-1.216.76-3.134,2.276-5.369,5.181-3.912,5.192-5.896,11.618-5.896,19.095.209,6.948,2.441,15.319,6.456,24.194,1.943,4.47,4.404,8.481,6.967,12.539,1.89,3.011,5.764,8.011,10.331,7.569,3.428-.352,5.648-3.909,6.485-5.248l.14-.223c.148-.232.459-.301.69-.153.233.148.302.457.153.69l-.135.216c-.907,1.452-3.316,5.311-7.235,5.713-.225.021-.448.031-.669.031Z"/>
    <path class="cls-6" d="M53.971,91.201c-.043,0-.086-.006-.129-.017-1.892-.505-3.146-1.551-3.725-2.13-5.145-4.756-7.318-13.062-6.439-18.336.929-6.635,10.052-12.883,12.826-14.64.234-.147.543-.078.69.155.148.233.079.542-.155.69-5.527,3.5-11.68,9.002-12.373,13.947-.837,5.025,1.233,12.923,6.144,17.464.522.521,1.623,1.439,3.29,1.884.267.071.425.346.354.612-.06.224-.262.371-.482.371Z"/>
    <path class="cls-6" d="M62.571,97.501h-4.8c-2.291,0-4.3-2.009-4.3-4.3v-3.193l.658.219c3.053,1.018,7.524,1.738,12.267,1.976l.475.023v.976c0,2.291-2.009,4.3-4.3,4.3ZM54.471,91.383v1.817c0,1.727,1.573,3.3,3.3,3.3h4.8c1.727,0,3.3-1.573,3.3-3.3v-.026c-4.327-.246-8.411-.889-11.4-1.791Z"/>
    <path class="cls-6" d="M58.871,73.001c-3.539,0-7.3-1.122-7.3-3.2s3.761-3.2,7.3-3.2,7.3,1.122,7.3,3.2-3.761,3.2-7.3,3.2ZM58.871,67.601c-3.606,0-6.3,1.161-6.3,2.2s2.694,2.2,6.3,2.2,6.3-1.162,6.3-2.2-2.694-2.2-6.3-2.2Z"/>
    <g>
      <ellipse class="cls-6" cx="70.671" cy="55.201" rx="1.3" ry="1.8"/>
      <path class="cls-6" d="M70.671,57.501c-1.009,0-1.8-1.01-1.8-2.3s.791-2.3,1.8-2.3,1.8,1.01,1.8,2.3-.791,2.3-1.8,2.3ZM70.671,53.901c-.378,0-.8.534-.8,1.3s.421,1.3.8,1.3.8-.534.8-1.3-.421-1.3-.8-1.3Z"/>
    </g>
    <path class="cls-6" d="M55.571,43.701c-.155,0-.308-.072-.406-.207-.162-.224-.111-.537.112-.698,1.723-1.244,4.185-2.477,7.119-3.563,3.405-1.033,7.092-2.031,11.774-2.031,10.492,0,17.335,4.124,19.183,5.387.228.156.286.467.131.695-.157.229-.469.286-.695.13-1.787-1.223-8.413-5.212-18.618-5.212-4.545,0-8.151.978-11.455,1.979-2.822,1.046-5.202,2.235-6.852,3.427-.089.064-.191.095-.292.095Z"/>
    <path class="cls-6" d="M89.194,118.33c-.221,0-.443-.011-.668-.031-3.802-.292-6.266-3.86-7.395-5.962-.131-.243-.039-.546.204-.677.242-.128.547-.039.677.204,1.032,1.921,3.263,5.182,6.598,5.438,4.575.403,8.448-4.559,10.338-7.567,2.565-4.062,5.027-8.075,6.965-12.533,1.522-3.446,6.15-13.926,6.459-24.216,0-7.462-1.984-13.888-5.899-19.084-1.74-2.175-3.703-4.069-5.378-5.185-.229-.153-.292-.463-.139-.693.154-.23.466-.291.693-.139,1.757,1.171,3.803,3.141,5.613,5.404,4.057,5.384,6.109,12.013,6.109,19.712-.314,10.5-5.002,21.114-6.543,24.603-1.965,4.521-4.449,8.57-7.034,12.664-2.344,3.732-6.046,8.062-10.601,8.062Z"/>
    <path class="cls-6" d="M74.099,112.199c-5.376,0-10.628-.201-14.282-.602-.274-.03-.473-.277-.442-.552s.271-.475.552-.442c7.251.795,20.849.796,29.098,0,.272-.012.52.175.546.45.026.274-.175.519-.45.546-4.15.4-9.648.601-15.021.601Z"/>
    <path class="cls-6" d="M92.907,50.088c-1.085,0-2.191-.062-3.294-.19-.236-.027-.421-.218-.44-.455s.13-.456.359-.522c3.705-1.073,5.249-2.045,7.866-4.954.793-.793,1.5-1.547,2.154-2.245,1.994-2.127,3.436-3.664,4.937-3.914.345-.122,1.167-.114,1.979.234.3.136.549.302.757.479-.155-.78-.531-1.533-1.27-2.132-.663-.589-1.595-.869-2.622-.792-1.34.094-2.641.74-3.481,1.728-1.815,2.016-9.709,10.035-12.545,9.672-.597-.099-1.214-.427-1.996-.842-1.988-1.057-4.993-2.653-10.939-2.653-6.015,0-9.166,1.683-11.048,2.688-.743.396-1.33.71-1.865.804-3.078.372-10.695-7.527-12.563-9.663-1.542-1.54-4.555-2.31-6.093-.954-.752.611-1.132,1.377-1.286,2.169.014-.012.029-.023.043-.035.935-.831,2.143-.743,2.542-.714.017.001.141.01.157.013,1.443.255,2.94,1.832,5.012,4.014.635.669,1.318,1.388,2.055,2.125,3.007,3.108,4.247,4.016,7.874,4.97.239.062.396.291.37.536-.026.246-.227.435-.474.447-4.826.228-9.593-.422-12.14-1.649-4.764-2.131-6.002-5.766-6.268-6.83-.627-2.509-.12-4.518,1.469-5.809,1.95-1.72,5.557-.877,7.469,1.035,3.572,4.081,9.752,9.604,11.687,9.357.352-.062.876-.343,1.541-.698,1.965-1.049,5.254-2.806,11.519-2.806,6.195,0,9.459,1.734,11.409,2.771.701.373,1.255.667,1.673.736,1.795.209,8.08-5.38,11.646-9.341,1.002-1.179,2.562-1.956,4.165-2.067,1.299-.092,2.491.274,3.339,1.028,1.572,1.276,2.081,3.285,1.454,5.794-.641,2.179-2.62,5.101-6.271,6.831-2.057,1.177-5.346,1.835-8.878,1.835ZM92.204,49.08c3.64.097,7.039-.525,9.119-1.713,4.362-2.068,5.57-5.533,5.769-6.207.068-.275.128-.571.168-.879-.125-.298-.414-.969-1.196-1.324-.575-.246-1.154-.242-1.335-.181-1.242.213-2.656,1.721-4.446,3.63-.661.705-1.376,1.466-2.158,2.249-2.088,2.322-3.583,3.497-5.92,4.426ZM41.496,40.365c.04.284.096.558.16.814.238.953,1.354,4.212,5.719,6.165,1.902.916,5.134,1.488,8.698,1.586-1.937-.848-3.272-2.02-5.461-4.282-.738-.737-1.426-1.462-2.067-2.138-1.854-1.952-3.321-3.498-4.436-3.713-.006-.001-.04-.002-.081-.004-.323-.024-1.186-.087-1.825.481-.405.326-.569.717-.658.985-.012.038-.029.073-.049.106Z"/>
    <path class="cls-6" d="M81.971,93.201h-15.6c-.276,0-.5-.224-.5-.5s.224-.5.5-.5h15.6c.276,0,.5.224.5.5s-.224.5-.5.5Z"/>
    <path class="cls-6" d="M94.571,91.3c-.213,0-.41-.137-.478-.351-.082-.264.064-.544.328-.627,1.602-.5,2.662-1.323,3.32-1.898,4.974-4.787,6.854-12.407,6.134-17.453-.657-4.192-5.054-9.149-12.38-13.953-.23-.151-.295-.461-.144-.692.151-.233.462-.296.692-.144,5.352,3.509,11.92,8.897,12.82,14.64.758,5.305-1.214,13.302-6.447,18.338-.744.651-1.916,1.56-3.697,2.117-.05.016-.101.022-.149.022Z"/>
    <path class="cls-6" d="M90.571,97.501h-4.801c-2.291,0-4.3-2.009-4.3-4.3v-1h.5c2.228,0,4.605-.238,6.843-.497,1.769-.338,3.564-.779,5.617-1.383l.746-.22-.11.771c-.051.349-.074.749-.099,1.161-.025.411-.051.832-.101,1.229.004,2.229-2.005,4.238-4.296,4.238ZM82.471,93.197v.004c0,1.727,1.573,3.3,3.3,3.3h4.801c1.727,0,3.3-1.573,3.3-3.3.051-.438.074-.839.099-1.228.01-.165.02-.328.031-.487-1.794.509-3.411.896-5.036,1.206-2.136.247-4.365.474-6.494.505Z"/>
    <path class="cls-6" d="M89.971,73.001c-4.161,0-7.3-1.376-7.3-3.2,0-1.884,3.002-3.2,7.3-3.2,3.543.186,7.3,1.123,7.3,3.2,0,1.884-3.002,3.2-7.3,3.2ZM89.945,67.6c-3.865,0-6.273,1.142-6.273,2.2,0,1.041,2.587,2.2,6.3,2.2,3.892,0,6.3-1.142,6.3-2.2,0-.906-2.217-1.984-6.326-2.2Z"/>
    <g>
      <ellipse class="cls-6" cx="78.271" cy="55.201" rx="1.3" ry="1.8"/>
      <path class="cls-6" d="M78.271,57.501c-1.009,0-1.8-1.01-1.8-2.3s.791-2.3,1.8-2.3,1.801,1.01,1.801,2.3-.791,2.3-1.801,2.3ZM78.271,53.901c-.378,0-.8.534-.8,1.3s.422,1.3.8,1.3.801-.534.801-1.3-.422-1.3-.801-1.3Z"/>
    </g>
  </g>
</svg>