<svg xmlns="http://www.w3.org/2000/svg" width="18" height="18" viewBox="0 0 18 18"><defs><style>.a{opacity:0.8;}.b{fill:#fff;}</style></defs><g class="a"><g transform="translate(7.66 3.384)"><path class="b" d="M241.071,126.832l-3.151-2.363v-4.814a.875.875,0,1,0-1.751,0v5.252a.873.873,0,0,0,.35.7l3.5,2.626a.875.875,0,0,0,1.05-1.4Z" transform="translate(-236.169 -118.779)"/></g><path class="b" d="M9,0a9,9,0,1,0,9,9A9.01,9.01,0,0,0,9,0ZM9,16.606A7.606,7.606,0,1,1,16.606,9,7.615,7.615,0,0,1,9,16.606Z"/></g></svg>