<svg xmlns="http://www.w3.org/2000/svg" width="26.583" height="29" viewBox="0 0 26.583 29"><defs><style>.a{fill:#fff;}</style></defs><path class="a" d="M10.573,124.189a5.142,5.142,0,0,1-5.135-5.135V106.668H3.323A3.326,3.326,0,0,0,0,109.991V126.3a3.326,3.326,0,0,0,3.323,3.323h15.1A3.326,3.326,0,0,0,21.75,126.3v-2.115Zm0,0" transform="translate(0 -100.626)"/><path class="a" d="M147.333,3.323A3.323,3.323,0,0,0,144.01,0H131.323A3.323,3.323,0,0,0,128,3.323v15.1a3.323,3.323,0,0,0,3.323,3.323H144.01a3.323,3.323,0,0,0,3.323-3.323Zm0,0" transform="translate(-120.75 0)"/></svg>