<?xml version="1.0" encoding="utf-8"?>
<!-- Generator: Adobe Illustrator 24.1.1, SVG Export Plug-In . SVG Version: 6.00 Build 0)  -->
<svg version="1.1" id="Layer_1" xmlns="http://www.w3.org/2000/svg" xmlns:xlink="http://www.w3.org/1999/xlink" x="0px" y="0px"
	 viewBox="0 0 512 512" style="enable-background:new 0 0 512 512;" xml:space="preserve">
<style type="text/css">
	.st0{fill:#F2F2F2;}
</style>
<g id="_11-Income">
	<path class="st0" d="M16,208c0-17.6,14.3-32,31.9-32H48h13.7c-3.8,13-5.7,26.5-5.7,40c0,8,0.7,16.1,2.1,24H48
		C30.3,240,16,225.7,16,208L16,208z M384,240v-32c0-17.7-14.3-32-32-32l0,0h-13.7c3.8,13,5.7,26.5,5.7,40c0,8-0.7,16.1-2.1,24H384z
		 M276.3,240c2.5-7.8,3.7-15.9,3.7-24c0-44.2-35.8-80-80-80s-80,35.8-80,80c0,8.1,1.2,16.2,3.7,24H276.3z M107,240
		c-13.2-51.3,17.7-103.7,69-116.9s103.7,17.7,116.9,69c4.1,15.7,4.1,32.2,0,47.9h32.7c1.5-7.9,2.3-15.9,2.3-24
		c0-70.7-57.3-128-128-128S72,145.3,72,216c0,8.1,0.8,16.1,2.3,24H107z M304,376c0-26.5,21.5-48,48-48h64v-32c0-22.1-17.9-40-40-40
		H48c-11.8,0-23.2-4.4-32-12.3V456c0,22.1,17.9,40,40,40h320c22.1,0,40-17.9,40-40v-32h-64C325.5,424,304,402.5,304,376z M424,344
		h-72c-17.7,0-32,14.3-32,32s14.3,32,32,32h72c4.4,0,8-3.6,8-8v-48C432,347.6,428.4,344,424,344z M200,72c4.4,0,8-3.6,8-8V24
		c0-4.4-3.6-8-8-8s-8,3.6-8,8v40C192,68.4,195.6,72,200,72z M120,88c4.4,0,8-3.6,8-8V40c0-4.4-3.6-8-8-8s-8,3.6-8,8v40
		C112,84.4,115.6,88,120,88z M280,88c4.4,0,8-3.6,8-8V40c0-4.4-3.6-8-8-8s-8,3.6-8,8v40C272,84.4,275.6,88,280,88z"/>
</g>
<path class="st0" d="M232,171.6"/>
</svg>
