<svg xmlns="http://www.w3.org/2000/svg" xmlns:xlink="http://www.w3.org/1999/xlink" width="39.6" height="44.276" viewBox="0 0 39.6 44.276"><defs><style>.a{fill:#fff;}.b{clip-path:url(#a);}.c{fill:#3400ec;}</style><clipPath id="a"><rect class="a" width="39.6" height="44.276"/></clipPath></defs><g class="b"><path class="c" d="M39.6.04S25.221,3.566,19.6,5.1L9.354,7.494.145,5.1S.121,12.057.121,15.607L9.43,18.173S39.6,10.546,39.6,10.749Z" transform="translate(-0.061 -0.02)"/><path class="c" d="M34.7,27.979,9.294,34.557.121,32.006.145,42.513c2.348.87,9.233,2.984,9.233,2.984L34.7,38.976Z" transform="translate(-0.061 -14.129)"/><path class="c" d="M9.474,60.177.121,57.924s.024,2.155.024,5.147V68.5l9.169,2.444L39.6,63.476V52.815Z" transform="translate(-0.061 -26.671)"/></g></svg>