<svg xmlns="http://www.w3.org/2000/svg" width="24" height="24" viewBox="0 0 24 24"><defs><style>.a{fill:#776464;}.b,.c{fill:#fff;}.b{fill-rule:evenodd;}</style></defs><g transform="translate(44 -3)"><circle class="a" cx="12" cy="12" r="12" transform="translate(-44 3)"/><path class="b" d="M18.378,18.5h7.809a1.757,1.757,0,0,1,.846.2,1.277,1.277,0,0,1,.647.6.049.049,0,0,0,.05.05,1.718,1.718,0,0,1,.249.9,1.535,1.535,0,0,1-.249.9h0L22.8,29.592a.571.571,0,0,1-.547.3.687.687,0,0,1-.547-.3l-4.825-8.456h0a1.678,1.678,0,0,1-.3-.846,1.555,1.555,0,0,1,.2-.945,1.21,1.21,0,0,1,.746-.647A1.483,1.483,0,0,1,18.378,18.5Zm3.283,1.194H18.378c-.2,0-.3,0-.348.05a.388.388,0,0,0-.2.2.448.448,0,0,0-.05.249c0,.05.05.1.149.3h0l3.731,6.466Zm1.194,0v7.312l3.78-6.516a.631.631,0,0,0,.05-.3.373.373,0,0,0-.05-.249c-.05-.05-.05-.1-.1-.1l-.05-.05a.737.737,0,0,0-.348-.05H22.854Z" transform="translate(-54.637 -8.757)"/><g transform="translate(-6.98 14.072)"><path class="c" d="M29,25.295v-.149a1.715,1.715,0,0,1,.6-.6,1.769,1.769,0,0,1,.945-.249,1.3,1.3,0,0,1,.9.3,1.025,1.025,0,0,1,.348.846v.995l-.995,1.641V25.792a.608.608,0,0,0-.149-.448.663.663,0,0,0-.5-.2.748.748,0,0,0-.547.2,1.948,1.948,0,0,0-.4.5,1.589,1.589,0,0,0-.149.7Z" transform="translate(-53.902 -25.744)"/></g></g></svg>