<?xml version="1.0" encoding="utf-8"?>
<!-- Generator: Adobe Illustrator 24.1.1, SVG Export Plug-In . SVG Version: 6.00 Build 0)  -->
<svg version="1.1" id="Layer_1" xmlns="http://www.w3.org/2000/svg" xmlns:xlink="http://www.w3.org/1999/xlink" x="0px" y="0px"
	 viewBox="0 0 512 512" style="enable-background:new 0 0 512 512;" xml:space="preserve">
<style type="text/css">
	.st0{fill:#776464;}
</style>
<circle class="st0" cx="256" cy="144" r="128"/>
<path class="st0" d="M80,496h197.8c-58.3-46.7-71-130.2-29.3-192.2c-41.4-2.1-80.3-20-108.8-50.1C74.5,281.3,32,345.2,32,416v32
	C32.1,474.5,53.5,495.9,80,496z"/>
<path class="st0" d="M256,384c0,61.9,50.1,112,112,112s112-50.1,112-112s-50.1-112-112-112C306.2,272.1,256.1,322.2,256,384z
	 M384,352v16h16c8.8,0,16,7.2,16,16s-7.2,16-16,16h-16v16c0,8.8-7.2,16-16,16s-16-7.2-16-16v-16h-16c-8.8,0-16-7.2-16-16
	s7.2-16,16-16h16v-16c0-8.8,7.2-16,16-16S384,343.2,384,352z"/>
</svg>
