<svg version="1.1" id="Layer_1" xmlns="http://www.w3.org/2000/svg" xmlns:xlink="http://www.w3.org/1999/xlink" x="0px" y="0px"
	 viewBox="0 0 500 500" style="enable-background:new 0 0 500 500;" xml:space="preserve">
<style type="text/css">
	.st0{fill:none;stroke:#776464;stroke-width:7;stroke-linecap:round;stroke-miterlimit:10;}
	.st1{fill:none;stroke:#776464;stroke-width:7;stroke-linecap:round;stroke-linejoin:round;stroke-miterlimit:10;}
	.st2{fill:none;stroke:#776464;stroke-width:6.674;stroke-miterlimit:10;}
</style>
<g id="Stroke">
	<path class="st0" d="M133.5,126.1c-9,6.7-20.2,17-26.3,25.1c-16.7,22-26.7,51.7-25.7,84c1.3,44.1,19.8,87.8,28,105.8
		c9.3,20.5,20.3,38.7,31.5,55.5c16,23.9,33,34.4,47.4,33.9c11.5-0.4,24.9-8.2,31.4-27.8"/>
	<path class="st0" d="M173.7,163.3c-26.1,16.7-51.1,40.2-54.5,62c-3.3,20.9,4.8,56.4,27.3,78.2c3.8,3.6,9,6.6,15.3,8.9"/>
	<path class="st0" d="M216.4,320.9v2.1c0,9.2-7.5,16.7-16.7,16.7h-21.3c-9.2,0-16.7-7.5-16.7-16.7v-10.5
		C176.5,317.9,196.9,320.1,216.4,320.9z"/>
	<ellipse class="st1" cx="181.8" cy="221.4" rx="29.5" ry="11.5"/>
	<ellipse class="st2" cx="233.4" cy="157.2" rx="5.7" ry="7.7"/>
	<path class="st0" d="M168.5,104.7c7.7-5.2,18.2-10.8,31.2-15.2c14.2-4.8,31.2-8.3,50.3-8.3c36.3,0,65.5,12.4,81.9,23.2"/>
	<path class="st0" d="M367.7,125.5c13.9,11,29.1,29,37,44.8c9.4,18.9,14.6,41.1,13.9,64.8c-1.3,44.1-19.8,87.8-28,105.8
		c-9.3,20.5-20.3,38.7-31.5,55.5c-28.3,42.4-62.3,40.5-77.1,5.8"/>
	<path class="st0" d="M313.4,400.3c-36,3.2-95.3,3.8-126.8,0"/>
	<path class="st1" d="M395.4,91.8c-3.8-6.8-9.3-8.5-14.5-8c-8,0.8-16.3,12.8-29.4,26.3c-12.2,12.7-18.6,17.1-34.6,21.5
		c18.4,1.9,39.2-0.4,51.2-6.2c16-7.9,23.7-20.4,26.2-28.6c2.7-8.8,1.4-17.3-5.2-23.2c-7.7-6.9-22.1-4-29.4,4
		c-12.5,13.6-42.1,42.6-52.6,41.4c-7.4-0.9-19.7-15.2-57-15.2h0c-37.4,0-49.7,14.3-57,15.2c-10.5,1.2-40.1-27.7-52.6-41.4
		c-7.3-8-21.7-10.9-29.4-4c-6.6,5.9-7.9,14.3-5.2,23.2c2.5,8.2,10.2,20.8,26.2,28.6c12,5.9,32.9,8.1,51.2,6.2
		c-16-4.4-22.4-8.8-34.6-21.5c-13-13.5-21.4-25.6-29.4-26.3c-5.2-0.5-10.7,1.2-14.5,8"/>
	<path class="st0" d="M216.4,320.9c12,0.5,23.7,0.4,33.6,0.2c9.9,0.2,21.6,0.3,33.6-0.2"/>
	<path class="st0" d="M338.3,312.4c6.3-2.3,11.6-5.2,15.3-8.9c22.5-21.8,30.5-57.3,27.3-78.2c-3.4-21.8-28.5-45.3-54.5-62"/>
	<path class="st0" d="M283.6,320.9v2.1c0,9.2,7.5,16.7,16.7,16.7h21.3c9.2,0,16.7-7.5,16.7-16.7v-10.5
		C323.5,317.9,303.1,320.1,283.6,320.9z"/>
	<path class="st1" d="M347.7,221.4c0,6.4-13.2,11.5-29.5,11.5c-16.3,0-29.5-5.2-29.5-11.5c0-6.4,13.2-11.5,29.5-11.5
		C334.5,209.9,347.7,215.1,347.7,221.4z"/>
	<ellipse class="st2" cx="266.6" cy="157.2" rx="5.7" ry="7.7"/>
</g>
</svg>
