<svg version="1.1" id="Layer_1" xmlns="http://www.w3.org/2000/svg" xmlns:xlink="http://www.w3.org/1999/xlink" x="0px" y="0px"
	 viewBox="0 0 400 400" style="enable-background:new 0 0 400 400;" xml:space="preserve">
<style type="text/css">
	.st0{fill:#EFEDE7;}
	.st1{fill:none;stroke:#776464;stroke-width:5;stroke-linecap:round;stroke-linejoin:round;stroke-miterlimit:10;}
</style>
<path class="st0" d="M326.3,188.8c-0.9,33-14.9,65.8-21,79.3c-7,15.4-15.2,29-23.6,41.6C260.5,341.5,235,340,224,314
	c-15.2,0.6-31.9,0.7-46.7,0.2c-4.8,14.6-14.9,20.5-23.5,20.8c-10.8,0.4-23.5-7.5-35.5-25.4c-8.4-12.5-16.6-26.2-23.6-41.6
	c-6.1-13.5-20.1-46.2-21-79.3c-0.7-24.2,6.8-46.4,19.3-62.9c4.6-6.1,13-13.7,19.7-18.8c-0.4-0.2-0.8-0.3-1.1-0.5
	c-12-5.9-17.8-15.3-19.7-21.4c-2-6.6-1-13,3.9-17.4c5.8-5.2,16.6-3,22,3c4.8,5.3,13.1,13.7,21.1,20.4c5.8-3.9,13.7-8.1,23.3-11.4
	c10.6-3.6,23.4-6.2,37.7-6.2c27.2,0,49.1,9.3,61.3,17.4c7.9-6.7,16-14.9,20.8-20.1c5.5-6,16.2-8.1,22-3c4.9,4.4,6,10.8,3.9,17.4
	c-1.9,6.1-7.7,15.5-19.7,21.4c-0.1,0-0.2,0.1-0.3,0.1c10.4,8.3,21.8,21.7,27.7,33.6C322.9,154.5,326.8,171.1,326.3,188.8z"/>
<path class="st1" d="M171.1,178.6c0,4.8-9.9,8.6-22.1,8.6c-12.2,0-22.1-3.9-22.1-8.6c0-4.8,9.9-8.6,22.1-8.6
	C161.2,170,171.1,173.8,171.1,178.6z M187.6,124.7c-2.4,0-4.3,2.6-4.3,5.7c0,3.2,1.9,5.7,4.3,5.7c2.4,0,4.3-2.6,4.3-5.7
	C191.8,127.3,189.9,124.7,187.6,124.7z M112.7,107.2c-6.7,5.1-15.1,12.7-19.7,18.8c-12.5,16.5-20,38.7-19.3,62.9
	c0.9,33,14.9,65.8,21,79.3c7,15.4,15.2,29,23.6,41.6c11.9,17.9,24.7,25.8,35.5,25.4c8.6-0.3,18.7-6.2,23.5-20.8 M138.9,91.2
	c5.8-3.9,13.7-8.1,23.3-11.4c10.6-3.6,23.3-6.2,37.7-6.2c27.2,0,49.1,9.3,61.3,17.4 M288.2,106.7c10.4,8.3,21.8,21.7,27.7,33.6
	c7,14.1,10.9,30.8,10.4,48.5c-0.9,33-14.9,65.8-21,79.3c-7,15.4-15.2,29-23.6,41.6C260.5,341.5,235,340,224,314 M247.5,312.6
	c-26.9,2.4-71.4,2.8-95,0 M308.9,81.5c-2.9-5.1-7-6.3-10.9-6c-6,0.6-12.2,9.6-22,19.7c-9.2,9.5-14,12.8-26,16.1
	c13.8,1.4,29.4-0.3,38.4-4.7c12-5.9,17.8-15.3,19.7-21.4c2-6.6,1-13-3.9-17.4c-5.8-5.2-16.6-3-22,3c-9.4,10.2-31.6,31.9-39.4,31
	c-5.5-0.7-14.7-11.4-42.7-11.4h0c-28,0-37.2,10.7-42.7,11.4c-7.8,0.9-30-20.8-39.4-31c-5.5-6-16.2-8.1-22-3
	c-4.9,4.4-5.9,10.7-3.9,17.4c1.9,6.2,7.7,15.6,19.7,21.4c9,4.4,24.6,6.1,38.4,4.7c-12-3.3-16.8-6.6-26-16.1
	c-9.8-10.1-16-19.1-22-19.7c-3.9-0.4-8,0.9-10.9,6 M142.8,135.1c-19.5,12.5-38.3,30.1-40.9,46.5c-2.5,15.7,3.6,42.3,20.4,58.6
	c2.8,2.7,6.8,4.9,11.5,6.7 M174.8,253.1v1.6c0,6.9-5.6,12.5-12.5,12.5h-16c-6.9,0-12.5-5.6-12.5-12.5v-7.9
	C144.9,250.9,160.2,252.5,174.8,253.1z M225.1,253.1c-9,0.4-17.8,0.3-25.2,0.1c-7.4,0.1-16.1,0.2-25.1-0.1 M257.2,135.1
	c19.5,12.5,38.3,30.1,40.8,46.5c2.5,15.7-3.6,42.3-20.4,58.6c-2.8,2.7-6.8,4.9-11.5,6.7 M266.1,246.8v7.9c0,6.9-5.6,12.5-12.5,12.5
	h-16c-6.9,0-12.5-5.6-12.5-12.5v-1.6C239.8,252.5,255.1,250.9,266.1,246.8z M251.1,169.9c-12.2,0-22.1,3.9-22.1,8.6
	c0,4.8,9.9,8.6,22.1,8.6c12.2,0,22.1-3.9,22.1-8.6C273.2,173.8,263.3,169.9,251.1,169.9z M208.2,130.5c0,3.2,1.9,5.7,4.3,5.7
	s4.3-2.6,4.3-5.7c0-3.2-1.9-5.7-4.3-5.7S208.2,127.3,208.2,130.5z"/>
</svg>
