<svg width="560" height="560" viewBox="0 0 560 560" fill="none" xmlns="http://www.w3.org/2000/svg">
<g clip-path="url(#clip0_20350_151612)">
<rect width="560" height="560" fill="url(#paint0_linear_20350_151612)"/>
<path fill-rule="evenodd" clip-rule="evenodd" d="M423 12H137C67.9644 12 12 67.9644 12 137V423C12 492.036 67.9644 548 137 548H423C492.036 548 548 492.036 548 423V137C548 67.9644 492.036 12 423 12Z" fill="url(#paint1_linear_20350_151612)"/>
<circle cx="280.002" cy="280" r="240" fill="url(#paint2_linear_20350_151612)"/>
<path d="M482.771 194.651C461.605 144.364 422.507 103.736 373.07 80.6551C323.632 57.5743 267.381 53.6872 215.239 69.7486C163.096 85.81 118.782 120.674 90.8999 167.571C63.0175 214.469 53.5563 270.054 64.3531 323.535C75.1499 377.016 105.434 424.578 149.327 456.985C193.22 489.393 247.588 504.334 301.878 498.909C356.168 493.484 406.505 468.079 443.116 427.626C479.728 387.174 500.002 334.56 500.002 280C500.04 250.683 494.181 221.657 482.771 194.651ZM464.141 369.452L454.384 343.785L478.392 330.933C474.962 344.232 470.187 357.147 464.141 369.479V369.452ZM83.1904 331.299L106.904 343.999L97.2815 369.345C91.3209 357.167 86.6001 344.421 83.1904 331.299ZM76.6621 280C76.6621 273.347 76.9772 266.774 77.6075 260.281L95.7743 280.428L77.6788 300.512C77.0129 293.764 76.674 286.927 76.6621 280ZM97.1121 190.985L106.922 216.92L82.8426 229.798C86.2656 216.409 91.0468 203.403 97.1121 190.985ZM478.544 229.673L454.331 216.679L464.221 190.637C470.32 203.124 475.119 216.205 478.544 229.673ZM359.84 418.004L340.754 405.09C346.793 402.174 352.609 398.818 358.154 395.048L359.84 418.004ZM308.265 436.153L295.369 417.941C301.816 417.27 308.209 416.146 314.499 414.579L308.265 436.153ZM253.309 436.813L246.888 414.606C253.605 416.275 260.438 417.437 267.329 418.084L253.309 436.813ZM240.913 448.558L212.267 466.181L202.26 435.448L231.406 415.729L240.913 448.558ZM201.493 417.647L203.152 395.083C208.612 398.78 214.331 402.076 220.267 404.947L201.493 417.647ZM201.493 142.719L219.856 155.204C214.069 158.062 208.487 161.319 203.152 164.952L201.493 142.719ZM253.3 123.437L267.044 141.925C260.296 142.571 253.604 143.71 247.022 145.332L253.3 123.437ZM308.247 124.097L314.356 145.376C308.196 143.849 301.938 142.746 295.627 142.077L308.247 124.097ZM320.349 111.272L349.004 93.5247L359.028 124.552L329.883 144.44L320.349 111.272ZM359.768 142.389L358.119 164.89C352.71 161.222 347.048 157.944 341.174 155.08L359.768 142.389ZM280.644 403.547C212.525 403.547 157.097 348.119 157.097 280C157.093 262.21 160.938 244.629 168.369 228.465C175.8 212.301 186.64 197.936 200.147 186.357C200.625 186.106 201.076 185.807 201.493 185.465C201.907 185.121 202.281 184.732 202.608 184.305C212.955 175.847 224.605 169.121 237.105 164.39C237.542 164.318 237.972 164.204 238.389 164.052C238.801 163.903 239.198 163.715 239.575 163.49C259.687 156.402 281.293 154.648 302.284 158.399C323.276 162.15 342.937 171.279 359.349 184.894C359.492 185.037 359.635 185.17 359.795 185.304C359.956 185.438 360.072 185.527 360.223 185.634C373.99 197.205 385.059 211.648 392.655 227.949C400.25 244.251 404.187 262.016 404.191 280C404.191 348.119 348.772 403.547 280.644 403.547ZM142.409 291.095L120.255 280.473L142.293 269.887C142.049 273.24 141.927 276.611 141.927 280C141.927 283.728 142.073 287.426 142.364 291.095H142.409ZM419.031 269.69L441.078 280.276L418.978 290.872C419.251 287.304 419.391 283.68 419.397 280C419.361 276.54 419.237 273.088 418.978 269.672L419.031 269.69ZM407.544 223.814L429.368 225.74L414.019 241.651C412.277 235.562 410.114 229.602 407.544 223.814ZM380.174 183.422L402.407 177.857L393.293 199.003C389.305 193.486 384.92 188.267 380.174 183.387V183.422ZM281.447 135.887L260.399 107.58L280.02 81.5472L301.255 107.66L281.447 135.887ZM231.415 144.806L202.26 124.873L212.267 93.8636L240.931 111.602L231.415 144.806ZM167.942 199.154L158.881 178.107L180.954 183.628C176.25 188.459 171.902 193.625 167.942 199.083V199.154ZM147.225 241.892L131.921 225.919L153.655 223.992C151.105 229.78 148.957 235.737 147.225 241.82V241.892ZM114.753 230.03L138.663 254.868L106.833 270.074L85.0454 245.869L114.753 230.03ZM106.833 290.845L138.627 306.122L114.726 330.96L84.983 315.049L106.833 290.845ZM147.448 318.84C149.236 325.032 151.459 331.091 154.101 336.971L131.876 335L147.448 318.84ZM181.659 377.211L158.828 382.919L168.156 361.247C172.258 366.893 176.771 372.229 181.659 377.211ZM281.447 424.585L301.255 452.518L280.011 478.462L260.391 452.598L281.447 424.585ZM329.874 416.086L359.01 435.805L349.031 466.547L320.376 448.924L329.874 416.086ZM393.195 361.167L402.461 382.714L379.799 377.041C384.649 372.084 389.127 366.775 393.195 361.158V361.167ZM413.921 318.715L429.421 334.83L407.304 336.784C409.931 330.911 412.142 324.862 413.921 318.679V318.715ZM446.625 330.746L422.724 305.908L454.518 290.64L476.341 314.835L446.625 330.746ZM454.464 269.86L422.634 254.582L446.536 229.754L476.252 245.655L454.464 269.86ZM440.106 211.417L405.77 208.385L419.718 175.984L452.074 179.909L440.106 211.417ZM406.492 161.171L373.057 169.536L375.634 134.362L407.446 127.495L406.492 161.171ZM312.982 98.0017L295.449 76.4459C309.26 77.4246 322.935 79.8153 336.26 83.5806L312.982 98.0017ZM248.333 98.3406L224.735 83.7322C237.801 79.9951 251.211 77.5839 264.761 76.5351L248.333 98.3406ZM188.276 169.75L154.841 161.385L153.842 127.7L185.699 134.576L188.276 169.75ZM141.615 176.198L155.563 208.59L121.227 211.631L109.214 180.114L141.615 176.198ZM121.103 349.287L155.439 352.328L141.517 384.72L109.161 380.778L121.103 349.287ZM154.787 399.507L188.223 391.132L185.645 426.316L153.789 433.192L154.787 399.507ZM248.342 461.784L264.752 483.429C251.232 482.391 237.85 480.001 224.806 476.295L248.342 461.784ZM312.982 462.123L336.17 476.393C322.869 480.154 309.219 482.544 295.431 483.527L312.982 462.123ZM373.066 390.927L406.492 399.329L407.482 433.022L375.625 426.137L373.066 390.927ZM419.781 384.479L405.832 352.079L440.168 349.038L452.128 380.555L419.781 384.479ZM465.523 280.178L483.842 259.862C484.49 266.48 484.817 273.18 484.823 279.964C484.823 286.879 484.484 293.717 483.806 300.477L465.523 280.178ZM448.721 164.221L421.653 160.93L422.474 133.283C432.225 142.702 441.017 153.066 448.721 164.221ZM399.018 113.769L373.289 119.335L365.182 94.2203C377.061 99.6371 388.392 106.184 399.018 113.769ZM196.196 94.2649L188.035 119.549L162.172 113.966C172.854 106.321 184.248 99.7231 196.196 94.2649ZM138.832 133.461L139.653 161.108L112.621 164.39C120.319 153.243 129.098 142.883 138.832 133.461ZM113.326 396.555L139.599 399.739L138.806 426.494C129.377 417.362 120.845 407.349 113.326 396.591V396.555ZM163.171 446.775L188.232 441.361L196.151 465.762C184.592 460.471 173.551 454.114 163.171 446.775ZM365.227 465.806L373.253 441.183L398.466 446.596C388.013 454.016 376.884 460.433 365.227 465.762V465.806ZM422.545 426.681L421.743 399.56L448.382 396.332C440.774 407.262 432.121 417.427 422.545 426.681Z" fill="url(#paint3_linear_20350_151612)"/>
</g>
<defs>
<linearGradient id="paint0_linear_20350_151612" x1="280" y1="0" x2="280" y2="560" gradientUnits="userSpaceOnUse">
<stop stop-color="#DFE7F0"/>
<stop offset="1" stop-color="#C7D1DD"/>
</linearGradient>
<linearGradient id="paint1_linear_20350_151612" x1="280" y1="12" x2="280" y2="548" gradientUnits="userSpaceOnUse">
<stop stop-color="white"/>
<stop offset="1" stop-color="#E6EFF6"/>
</linearGradient>
<linearGradient id="paint2_linear_20350_151612" x1="280.002" y1="40" x2="280.002" y2="520" gradientUnits="userSpaceOnUse">
<stop stop-color="#629CE6"/>
<stop offset="0.5" stop-color="#3F79CF"/>
<stop offset="1" stop-color="#2E74B5"/>
</linearGradient>
<linearGradient id="paint3_linear_20350_151612" x1="280.002" y1="2.27581e-06" x2="280.002" y2="560" gradientUnits="userSpaceOnUse">
<stop stop-color="white"/>
<stop offset="1" stop-color="#E6EFF6"/>
</linearGradient>
<clipPath id="clip0_20350_151612">
<rect width="560" height="560" fill="white"/>
</clipPath>
</defs>
</svg>
