<svg xmlns="http://www.w3.org/2000/svg" width="22" height="22.001" viewBox="0 0 22 22.001"><defs><style>.a{fill:#483637;}</style></defs><g transform="translate(-23.583 -130)"><path class="a" d="M297.332,11.475l7.694,2.042a.542.542,0,0,1,.41.407l2.028,7.693a.5.5,0,0,0,.967,0l2.03-7.693a.536.536,0,0,1,.408-.407l7.694-2.042a.485.485,0,0,0,0-.949l-7.694-2.041a.539.539,0,0,1-.408-.407L308.43.386a.5.5,0,0,0-.967,0l-2.028,7.693a.545.545,0,0,1-.41.407l-7.694,2.041a.485.485,0,0,0,0,.949Z" transform="translate(-273.364 130)"/></g></svg>
