<svg xmlns="http://www.w3.org/2000/svg" width="22.1" height="22.1" viewBox="0 0 22.1 22.1"><defs><style>.a{fill:#483637;}</style></defs><g transform="translate(-2 -2)"><rect class="a" width="22.1" height="6.63" rx="2" transform="translate(2 8.078)"/><path class="a" d="M11.788,14.505v8.288H6.263A2.763,2.763,0,0,1,3.5,20.03V14.45a2.287,2.287,0,0,0,.552.055Z" transform="translate(0.157 1.307)"/><path class="a" d="M21.288,14.45v5.58a2.763,2.763,0,0,1-2.762,2.763H13V14.505h7.735a2.287,2.287,0,0,0,.552-.055Z" transform="translate(1.155 1.307)"/><path class="a" d="M12.107,9.735A1.105,1.105,0,0,1,11,8.409l.486-2.453A4.95,4.95,0,0,1,16.339,2a3.5,3.5,0,0,1,.575,6.95l-4.63.785ZM16.339,4.21a2.729,2.729,0,0,0-2.663,2.21L13.5,7.3l3.028-.53a1.293,1.293,0,0,0-.188-2.564Z" transform="translate(0.943 0)"/><path class="a" d="M12.737,9.735H12.56L7.93,8.962A3.5,3.5,0,0,1,8.5,2a4.95,4.95,0,0,1,4.829,3.956l.508,2.453a1.1,1.1,0,0,1-1.1,1.326ZM8.5,4.21a1.293,1.293,0,0,0-.188,2.564l3.061.508-.21-.862A2.729,2.729,0,0,0,8.5,4.21Z" transform="translate(0.313 0)"/></g></svg>
