<svg xmlns="http://www.w3.org/2000/svg" width="19" height="19" viewBox="0 0 19 19"><defs><style>.a,.b{fill:#776464;}.a{stroke:#707070;}</style></defs><g transform="translate(-5.999 -6.036)"><g transform="translate(12.776 11.189)"><path class="a" d="M26.009,25.367H26a.635.635,0,0,1-.629-.641l0-.318a.524.524,0,0,1,0-.055,3.041,3.041,0,0,1,1.194-1.945c.167-.154.325-.3.46-.452a.86.86,0,0,0,.152-1.022,1.4,1.4,0,0,0-1.541-.553,1.181,1.181,0,0,0-.858.9.635.635,0,0,1-1.227-.329,2.408,2.408,0,0,1,1.8-1.808A2.643,2.643,0,0,1,28.3,20.326a2.12,2.12,0,0,1-.316,2.474,7.6,7.6,0,0,1-.549.543c-.456.421-.741.7-.789,1.108l0,.287a.634.634,0,0,1-.634.63Z" transform="translate(-23.537 -19.069)"/></g><g transform="translate(14.615 18.936)"><g transform="translate(0)"><path class="a" d="M29.955,42.194a.64.64,0,0,1-.448-.184.632.632,0,0,1,0-.9.657.657,0,0,1,.9,0,.63.63,0,0,1,.187.448.629.629,0,0,1-.635.635Z" transform="translate(-29.32 -40.935)"/></g></g><g transform="translate(5.999 6.036)"><path class="b" d="M15.473,25.036a9.42,9.42,0,0,1-2.45-.322,9.554,9.554,0,1,1,2.45.322ZM15.519,7.5A8.04,8.04,0,0,0,13.4,23.3a7.972,7.972,0,0,0,2.07.272h0A8.044,8.044,0,0,0,19.09,8.333,8.017,8.017,0,0,0,15.519,7.5Z" transform="translate(-5.999 -6.036)"/></g></g></svg>