<?xml version="1.0" encoding="utf-8"?>
<!-- Generator: Adobe Illustrator 24.1.1, SVG Export Plug-In . SVG Version: 6.00 Build 0)  -->
<svg version="1.1"
	 id="Layer_1" xmlns:cc="http://creativecommons.org/ns#" xmlns:dc="http://purl.org/dc/elements/1.1/" xmlns:inkscape="http://www.inkscape.org/namespaces/inkscape" xmlns:rdf="http://www.w3.org/1999/02/22-rdf-syntax-ns#" xmlns:sodipodi="http://sodipodi.sourceforge.net/DTD/sodipodi-0.dtd" xmlns:svg="http://www.w3.org/2000/svg"
	 xmlns="http://www.w3.org/2000/svg" xmlns:xlink="http://www.w3.org/1999/xlink" x="0px" y="0px" viewBox="0 0 512 512"
	 style="enable-background:new 0 0 512 512;" xml:space="preserve">
<style type="text/css">
	.st0{fill:#F2F2F2;}
</style>
<path id="path2" inkscape:connector-curvature="0" sodipodi:nodetypes="ccccsccccccsccsccccsscssscssssssscssscsssccscccccccccccscc" class="st0" d="
	M315.9,155.9c-1.3,0.5-2.7,1-4,1.5c1.8,6.3-42.8,7.9-52.7,7.9c-26.3,0-49.6-5.2-64.5-9.5c-57.4,46.6-126.8,158.5-126.4,252
	C68.6,458,95.8,512,155.1,512h200.3h0.3c47.3-1.4,88.4-50.2,87.9-104.4C442.8,314,372.9,202.3,315.9,155.9L315.9,155.9z
	 M190.1,132.1c-26.5-27.9-52-67.8-51.6-89.8c0.5-9.9,2.1-20.3,10.9-24.3c9.3-4.3,17.8,2.4,25.3,8.2c4.9,3.8,12.4,9.6,16.1,8.8
	c2.2-0.5,5.1-3.9,13.6-16.2C213,6.5,223.4-0.8,234,0c13,1,19.7,13.3,26.2,25.2c5.1,8.7,9.6,16.6,15.9,22.9c1.7-1.4,4.4-4.8,6.4-7.1
	c10.5-12.8,30-36.5,71.1-20.1c4.1,1.6,6.7,5.5,6.7,9.9c0,29.3-21.1,72.8-43.8,101.9C265.7,155.2,206.2,137.7,190.1,132.1
	L190.1,132.1z"/>
</svg>
