<svg version="1.1" id="Capa_1" xmlns="http://www.w3.org/2000/svg" xmlns:xlink="http://www.w3.org/1999/xlink" x="0px" y="0px"
	 viewBox="0 0 512 512" style="enable-background:new 0 0 512 512;" xml:space="preserve">
<style type="text/css">
	.st0{fill:#776464;}
</style>
<g>
	<path class="st0" d="M346,61c-8.3,0-15,6.7-15,15s6.7,15,15,15c24.8,0,45,20.2,45,45c0,8.3,6.7,15,15,15s15-6.7,15-15
		c0-24.8,20.2-45,45-45c8.3,0,15-6.7,15-15s-6.7-15-15-15c-24.8,0-45-21.2-45-46c0-8.3-6.7-15-15-15s-15,6.7-15,15
		C391,39.8,370.8,61,346,61z"/>
	<path class="st0" d="M181,196c0,8.3,6.7,15,15,15c41.4,0,75,33.6,75,75c0,8.3,6.7,15,15,15s15-6.7,15-15c0-41.4,33.6-75,75-75
		c8.3,0,15-6.7,15-15s-6.7-15-15-15c-41.4,0-75-33.6-75-75c0-8.3-6.7-15-15-15s-15,6.7-15,15c0,41.4-33.6,75-75,75
		C187.7,181,181,187.7,181,196z"/>
	<path class="st0" d="M256,512c126.7,0,238.7-95.7,255.9-221.3c0.9-6.9-3-13.6-9.6-16.1c-6.6-2.5-13.9-0.1-17.8,5.7
		C451,330.9,391.4,361,331,361c-99.3,0-180-80.7-180-180c0-60.4,30.1-120,80.6-153.5c5.8-3.9,8.2-11.3,5.7-17.8
		c-2.5-6.5-9.2-10.4-16.1-9.6C95.7,17.3,0,129.3,0,256C0,396.6,115.4,512,256,512L256,512z"/>
</g>
</svg>
