<svg version="1.1" id="Layer_1" xmlns="http://www.w3.org/2000/svg" xmlns:xlink="http://www.w3.org/1999/xlink" x="0px" y="0px"
	 viewBox="0 0 128 128" style="enable-background:new 0 0 128 128;" xml:space="preserve">
<style type="text/css">
	.st0{fill:#FFEDEF;}
	.st1{fill:#FFD2D4;}
</style>
<g id="Layer_1_1_">
</g>
<g id="Layer_2_1_">
	<g>
		<circle class="st0" cx="64" cy="64" r="33.5"/>
		<path class="st1" d="M79,34c2.3,4.5,3.5,9.6,3.5,15c0,18.5-15,33.5-33.5,33.5c-5.4,0-10.5-1.3-15-3.5c5.5,11,16.9,18.5,30,18.5
			c18.5,0,33.5-15,33.5-33.5C97.5,50.8,90,39.5,79,34z"/>
		<g>
			<path class="st0" d="M64,2c-1.1,0-2,0.9-2,2v11.2c0,1.1,0.9,2,2,2s2-0.9,2-2V4C66,2.9,65.1,2,64,2z"/>
			<path class="st0" d="M64,110.7c-1.1,0-2,0.9-2,2V124c0,1.1,0.9,2,2,2s2-0.9,2-2v-11.2C66,111.6,65.1,110.7,64,110.7z"/>
			<path class="st0" d="M105,20.1l-7.9,7.9c-0.8,0.8-0.8,2,0,2.8c0.4,0.4,0.9,0.6,1.4,0.6s1-0.2,1.4-0.6l7.9-7.9
				c0.8-0.8,0.8-2,0-2.8S105.8,19.4,105,20.1z"/>
			<path class="st0" d="M28.1,97l-7.9,7.9c-0.8,0.8-0.8,2.1,0,2.8c0.4,0.4,0.9,0.6,1.4,0.6s1-0.2,1.4-0.6l7.9-7.9
				c0.8-0.8,0.8-2.1,0-2.8S28.9,96.3,28.1,97z"/>
			<path class="st0" d="M124,62h-11.2c-1.1,0-2,0.9-2,2s0.9,2,2,2H124c1.1,0,2-0.9,2-2S125.1,62,124,62z"/>
			<path class="st0" d="M15.3,62H4c-1.1,0-2,0.9-2,2s0.9,2,2,2h11.2c1.1,0,2-0.9,2-2S16.4,62,15.3,62z"/>
			<path class="st0" d="M99.9,97c-0.8-0.8-2.1-0.8-2.8,0s-0.8,2.1,0,2.8l7.9,7.9c0.4,0.4,0.9,0.6,1.4,0.6s1-0.2,1.4-0.6
				c0.8-0.8,0.8-2.1,0-2.8L99.9,97z"/>
			<path class="st0" d="M23,20.1c-0.8-0.8-2-0.8-2.8,0s-0.8,2,0,2.8l7.9,7.9c0.4,0.4,0.9,0.6,1.4,0.6s1-0.2,1.4-0.6
				c0.8-0.8,0.8-2,0-2.8L23,20.1z"/>
		</g>
	</g>
</g>
</svg>
