<svg xmlns="http://www.w3.org/2000/svg" width="24" height="24" viewBox="0 0 24 24"><defs><style>.a{fill:#08c;}.b{fill:#fff;fill-rule:evenodd;}</style></defs><circle class="a" cx="12" cy="12" r="12"/><path class="b" d="M18.383,18.5h7.852a1.936,1.936,0,0,1,.846.176,1.612,1.612,0,0,1,.661.607q.015.022.028.045a1.762,1.762,0,0,1,.23.876,1.876,1.876,0,0,1-.23.907l0,.008L22.8,29.645a.609.609,0,0,1-1.054,0l-4.87-8.5,0-.007a1.885,1.885,0,0,1-.314-.834,1.657,1.657,0,0,1,.948-1.638A2,2,0,0,1,18.383,18.5Zm3.287,1.217H18.383a.872.872,0,0,0-.357.04.435.435,0,0,0-.192.177.444.444,0,0,0-.058.258c0,.052.025.111.15.316l.008.013,3.737,6.525Zm1.217,0v7.362l3.823-6.568a.665.665,0,0,0,.072-.307.541.541,0,0,0-.063-.259.978.978,0,0,0-.1-.124.179.179,0,0,0-.057-.041.728.728,0,0,0-.331-.062Z" transform="translate(-10.278 -11.487)"/></svg>