<?xml version="1.0" encoding="UTF-8"?>
<svg id="Layer_1" xmlns="http://www.w3.org/2000/svg" width="61.95" height="40.157" viewBox="0 0 61.95 40.157">
  <defs>
    <style>
      .cls-1 {
        fill: #112731;
      }

      .cls-2 {
        fill: #fff;
      }

      .cls-3 {
        fill: #10b68b;
      }
    </style>
  </defs>
  <path class="cls-3" d="M40.62,1.299c-3.8,1.361-6.752,3.615-9.645,5.823-2.061,1.576-3.678,3.031-4.783,4.083-.718-1.396-1.967-3.451-4-5.389-3.164-3.017-6.359-3.975-7.059-4.173-3.678-1.043-6.766-.429-8.312,0,1.414,4.277,3.351,6.229,4.942,7.216,3.296,2.044,6.43,3.128,6.43,3.128,1.177.406,2.314.715,2.823,1.827.689,1.506-.313,3.338-.391,3.476-1.26,2.238-3.938,2.18-4.118,2.171-.94-.078-7.192-.477-12.038,4.868C.38,28.848.048,34.417,0,35.723v1.546c0,1.596,1.168,2.888,2.605,2.888h32.905c1.333,0,2.455-1.117,2.591-2.588.325-3.527-.32-5.979-1.087-7.67-2.531-5.569-8.063-6.508-8.233-10.868-.108-2.787,2.054-4.909,2.197-5.041,3.293-3.135,7.132.309,15.527-.955,2.036-.305,5.401-.849,9.016-3.216,3.18-2.078,5.232-4.704,6.43-6.519,0,0-10.907-5.825-21.33-1.995v-.005Z"/>
  <path class="cls-2" d="M17.398,36.713c-.38.516-1.345,1.826-2.832,1.925-2.21.151-3.673-2.487-3.885-2.888-1.012-1.908-1.032-4.388,0-6.345.864-1.635,2.847-3.639,4.776-3.107,1.519.42,2.227,2.197,2.592,3.107.854,2.143.936,5.157-.648,7.308h-.002Z"/>
  <path class="cls-2" d="M29.209,29.748c.99,3.959-2.083,6.93-2.212,7.052-.434.403-2.366,2.211-4.124,1.521-2.501-.981-2.386-6.136-2.366-6.925.029-1.265.113-5.012,2.292-6.083.993-.49,2.047-.231,2.673,0,.316.137,2.963,1.326,3.743,4.434h-.005Z"/>
  <path class="cls-1" d="M17.567,28.979c-.427-.659-1.187-1.077-1.984-1.087-1.035-.014-2.04.676-2.447,1.679-.413,1.02-.162,2.299.595,3.039.499.489,1.194.712,1.855.648.364-.035.718-.156,1.025-.365.652-.446,1.171-1.247,1.319-2.037.126-.666,0-1.317-.36-1.877h-.003Z"/>
  <path class="cls-1" d="M28.489,28.643c-.427-.659-1.187-1.077-1.984-1.087-1.035-.014-2.041.677-2.447,1.679-.413,1.02-.162,2.299.595,3.039.499.489,1.194.712,1.855.648.364-.035.718-.156,1.025-.365.652-.446,1.171-1.247,1.319-2.036.126-.666,0-1.318-.361-1.877h-.003Z"/>
  <path class="cls-2" d="M26.631,31.924c.696,0,1.26-.564,1.26-1.26s-.564-1.26-1.26-1.26-1.26.564-1.26,1.26.564,1.26,1.26,1.26Z"/>
  <path class="cls-2" d="M16.297,31.924c.65,0,1.176-.564,1.176-1.26s-.527-1.26-1.176-1.26-1.176.564-1.176,1.26.527,1.26,1.176,1.26Z"/>
</svg>