<svg width="186" height="90" viewBox="0 0 186 90" fill="none" xmlns="http://www.w3.org/2000/svg">
<rect width="186" height="90" fill="white"/>
<path d="M60.4453 41.0243V49.0824H65.7491V63.1222L72.4561 61.7367L73.078 48.6501L81.5008 48.5651V40.071L60.4453 41.0243Z" fill="#112731"/>
<path d="M105.436 40.7656C105.436 41.1128 104.578 61.3043 104.578 61.3043H110.74L111.285 49.2596L120.021 62.6899L127.04 61.7366L126.338 39.2914L120.878 38.7705L120.489 49.1675L111.91 39.2028L105.436 40.762V40.7656Z" fill="#112731"/>
<path d="M164.946 43.6259C164.726 43.314 161.508 38.9448 156.756 39.4657C154.189 39.7456 152.473 41.3119 151.765 41.9781C148.595 44.9547 147.249 49.9229 147.944 54.3701C148.078 55.2348 149.128 61.957 154.106 63.8138C157.487 65.0754 160.583 63.3177 161.553 62.687C164.962 60.4722 165.967 56.677 166.35 55.2347C166.694 53.9378 168.209 48.2078 164.946 43.6223V43.6259ZM160.969 55.6706C159.971 57.1022 158.236 57.9314 156.603 57.5771C153.994 57.0101 152.355 53.5763 153.015 50.7308C153.529 48.5232 155.471 46.4749 157.617 46.6592C159.614 46.8293 160.743 48.8492 160.972 49.2602C161.853 50.8336 162.436 53.5693 160.972 55.6742L160.969 55.6706Z" fill="#112731"/>
<path d="M143.496 47.5248L147.942 42.7409C147.278 42.0818 144.427 39.3922 140.144 39.463C139.159 39.4808 135.587 39.6012 132.735 42.7409C129.122 46.7204 129.76 52.1421 129.849 52.8083C130.018 54.0663 130.783 58.393 134.371 60.8664C135.306 61.5114 138.116 63.1911 141.468 62.167C143.464 61.5575 144.762 60.2605 145.368 59.5659L142.561 53.8466C140.839 55.4908 138.32 55.4872 136.712 53.9316C135.293 52.5638 134.834 50.2321 135.622 48.2122C136.413 46.2987 138.119 45.1009 139.911 45.1789C142.15 45.2781 143.381 47.3192 143.499 47.5177L143.496 47.5248Z" fill="#112731"/>
<path d="M99.2007 43.3652C98.4608 42.4757 95.6479 39.0916 91.403 39.4672C87.7608 39.7897 85.5475 42.6565 85.085 43.2801C84.4536 44.3326 81.5513 49.4035 82.9004 55.5836C83.2512 57.1924 84.2176 61.6148 88.0479 63.8154C91.1287 65.5872 95.0164 65.3214 97.874 63.1208C101.229 60.5411 101.778 56.3667 102.007 54.6303C102.231 52.9258 102.661 47.5289 99.2007 43.3652ZM94.0533 55.9308C92.5639 56.4553 90.8417 55.9237 89.7637 54.5453C88.7017 53.1845 88.4561 51.2462 89.1386 49.6055C90.0444 47.2773 92.2099 46.0902 94.0533 46.6607C95.8074 47.2029 96.7099 49.1661 96.8598 50.7323C97.0544 52.7664 96.088 55.2186 94.0533 55.9308Z" fill="#112731"/>
<path d="M57.62 23.2993C53.8201 24.6603 50.8676 26.9142 47.9751 29.1219C45.9139 30.6975 44.2972 32.1531 43.1918 33.2051C42.4733 31.8094 41.2251 29.754 39.1915 27.8162C36.0272 24.7987 32.833 23.8414 32.1329 23.643C28.455 22.6003 25.3667 23.2139 23.8214 23.643C25.2355 27.92 27.1723 29.8716 28.7636 30.859C32.0592 32.9029 35.1936 33.9871 35.1936 33.9871C36.3704 34.3931 37.5081 34.7023 38.017 35.8142C38.7056 37.3206 37.7038 39.1523 37.6255 39.2907C36.3658 41.5284 33.6874 41.4707 33.5078 41.4615C32.5682 41.383 26.3156 40.984 21.4701 46.329C17.38 50.8483 17.0484 56.4171 17 57.7228V59.2684C17 60.8648 18.1676 62.1567 19.6047 62.1567H52.5097C53.8431 62.1567 54.9647 61.0401 55.1005 59.5683C55.4253 56.0411 54.7804 53.5888 54.0135 51.8979C51.4825 46.329 45.9508 45.3901 45.7804 41.0301C45.6721 38.2434 47.8346 36.121 47.9774 35.9895C51.2707 32.8544 55.1097 36.2986 63.5041 35.0345C65.5399 34.7299 68.9046 34.1855 72.5203 31.8186C75.7007 29.7401 77.7527 27.1149 78.9502 25.2993C78.9502 25.2993 68.0433 19.4744 57.62 23.3039V23.2993Z" fill="#10B68B"/>
<path d="M34.3982 58.7134C34.018 59.2291 33.0537 60.5392 31.566 60.6385C29.3559 60.789 27.8928 58.1513 27.6806 57.7509C26.6685 55.8434 26.6487 53.3626 27.6806 51.4055C28.5445 49.7703 30.5276 47.7668 32.4563 48.2985C33.9753 48.7181 34.6829 50.4958 35.0482 51.4055C35.9023 53.5484 35.9846 56.5625 34.3998 58.7134H34.3982Z" fill="white"/>
<path d="M46.2088 51.7475C47.1992 55.707 44.126 58.6774 43.9964 58.8C43.562 59.2034 41.6299 61.0105 39.8729 60.3215C37.372 59.3405 37.487 54.1855 37.5065 53.3965C37.5357 52.1315 37.6199 48.385 39.7984 47.3136C40.7919 46.8231 41.8455 47.0829 42.4711 47.3136C42.7872 47.4508 45.4341 48.6399 46.2137 51.7475H46.2104H46.2088Z" fill="white"/>
<path d="M34.5669 50.9789C34.1403 50.3201 33.3797 49.9022 32.5827 49.8916C31.5475 49.8774 30.5422 50.5681 30.1354 51.5704C29.722 52.5904 29.9733 53.869 30.7307 54.6092C31.23 55.098 31.9245 55.3211 32.586 55.2574C32.9497 55.2219 33.3036 55.1015 33.6112 54.8926C34.2627 54.4463 34.7819 53.6459 34.9307 52.856C35.0564 52.1902 34.9307 51.5385 34.5702 50.9789H34.5669Z" fill="#112731"/>
<path d="M45.4888 50.643C45.0622 49.9842 44.3016 49.5663 43.5045 49.5556C42.4694 49.5415 41.464 50.2321 41.0572 51.2344C40.6439 52.2545 40.8952 53.533 41.6525 54.2733C42.1519 54.762 42.8464 54.9852 43.5078 54.9214C43.8716 54.886 44.2255 54.7656 44.5331 54.5566C45.1846 54.1104 45.7038 53.3099 45.8526 52.5201C45.9783 51.8542 45.8526 51.2026 45.4921 50.643H45.4888Z" fill="#112731"/>
<path d="M43.6312 53.9239C44.3272 53.9239 44.8914 53.3597 44.8914 52.6637C44.8914 51.9678 44.3272 51.4036 43.6312 51.4036C42.9353 51.4036 42.3711 51.9678 42.3711 52.6637C42.3711 53.3597 42.9353 53.9239 43.6312 53.9239Z" fill="white"/>
<path d="M33.2972 53.9239C33.9468 53.9239 34.4734 53.3597 34.4734 52.6637C34.4734 51.9678 33.9468 51.4036 33.2972 51.4036C32.6477 51.4036 32.1211 51.9678 32.1211 52.6637C32.1211 53.3597 32.6477 53.9239 33.2972 53.9239Z" fill="white"/>
</svg>
